<svg width="346.8" height="73.401" viewBox="0 0 346.8 73.401" xmlns="http://www.w3.org/2000/svg"><g id="svgGroup" stroke-linecap="round" fill-rule="evenodd" font-size="9pt" stroke="#000" stroke-width="0.25mm" fill="#000" style="stroke:#000;stroke-width:0.25mm;fill:#000"><path d="M 0 63.4 L 2.2 61.2 Q 5.8 65.4 10.9 67.9 Q 16 70.4 22 70.4 A 26.23 26.23 0 0 0 27.217 69.912 Q 31.652 69.011 34.7 66.45 A 12.635 12.635 0 0 0 39.365 57.265 A 16.119 16.119 0 0 0 39.4 56.2 A 18.564 18.564 0 0 0 39.199 53.382 Q 38.816 50.889 37.7 49.15 Q 36 46.5 33.25 44.8 Q 30.5 43.1 27.2 41.6 L 17 37 A 52.563 52.563 0 0 1 13.755 35.348 A 67.162 67.162 0 0 1 11.1 33.8 Q 8 31.9 5.8 28.8 Q 3.6 25.7 3.6 20.8 Q 3.6 16.1 6.05 12.55 A 16.279 16.279 0 0 1 11.865 7.422 A 19.536 19.536 0 0 1 12.7 7 A 20.563 20.563 0 0 1 19.15 5.176 A 25.719 25.719 0 0 1 22.2 5 Q 28.2 5 32.8 7.35 Q 37.39 9.695 40.188 12.787 A 19.157 19.157 0 0 1 40.2 12.8 L 38.2 15 Q 35.4 11.8 31.35 9.9 A 20.052 20.052 0 0 0 25.136 8.167 A 25.083 25.083 0 0 0 22.2 8 A 22.481 22.481 0 0 0 17.444 8.475 Q 13.723 9.28 11.05 11.45 Q 6.8 14.9 6.8 20.6 A 14.458 14.458 0 0 0 7.056 23.402 Q 7.387 25.078 8.146 26.404 A 8.376 8.376 0 0 0 8.7 27.25 Q 10.6 29.8 13.35 31.35 A 100.352 100.352 0 0 0 15.983 32.785 A 72.878 72.878 0 0 0 18.4 34 L 28.6 38.6 A 43.666 43.666 0 0 1 34.855 41.911 A 40.024 40.024 0 0 1 35.45 42.3 Q 38.6 44.4 40.6 47.65 A 12.581 12.581 0 0 1 42.068 51.232 Q 42.467 52.836 42.567 54.716 A 24.253 24.253 0 0 1 42.6 56 A 16.739 16.739 0 0 1 41.502 62.11 A 15.7 15.7 0 0 1 40.05 64.95 A 16.852 16.852 0 0 1 34.286 70.386 A 20.735 20.735 0 0 1 32.85 71.15 A 22.051 22.051 0 0 1 26.782 73.029 A 29.52 29.52 0 0 1 22 73.4 A 31.624 31.624 0 0 1 15.563 72.774 A 24.139 24.139 0 0 1 9.25 70.55 A 32.677 32.677 0 0 1 1.741 65.212 A 30.085 30.085 0 0 1 0 63.4 Z M 108 72.2 L 105 72.2 L 105 24.4 L 107.6 24.4 L 108 32 L 108.2 32 A 49.362 49.362 0 0 1 112.765 27.946 A 40.062 40.062 0 0 1 115.95 25.7 Q 119.9 23.2 124.8 23.2 Q 132.2 23.2 135.7 27.65 A 13.794 13.794 0 0 1 137.833 31.67 Q 139.2 35.588 139.2 41.4 L 139.2 72.2 L 136.2 72.2 L 136.2 41.8 Q 136.2 33.8 133.5 29.9 A 8.582 8.582 0 0 0 128.604 26.504 Q 126.828 26 124.6 26 Q 120.1 26 116.4 28.4 A 34.158 34.158 0 0 0 113.611 30.435 Q 111.011 32.525 108 35.6 L 108 72.2 Z M 313.6 72.2 L 310.4 72.2 L 326.8 47.2 L 311.8 24.4 L 315.2 24.4 L 323.4 37.2 A 109.342 109.342 0 0 0 325.929 41.02 A 119.493 119.493 0 0 0 325.95 41.05 Q 327.3 43 328.6 45 L 329 45 Q 330.4 43 331.65 41.05 Q 332.9 39.1 334.2 37.2 L 342.2 24.4 L 345.4 24.4 L 330.4 47.4 L 346.8 72.2 L 343.4 72.2 L 334.4 58.4 Q 333.1 56.1 331.6 53.9 Q 330.1 51.7 328.6 49.6 L 328.2 49.6 Q 326.7 51.7 325.3 53.9 Q 323.9 56.1 322.4 58.4 L 313.6 72.2 Z M 214.8 67.4 L 214.6 67.4 L 214.2 72.2 L 211.6 72.2 L 211.6 0 L 214.6 0 L 214.6 21.4 L 214.4 31 Q 218.2 27.8 222.55 25.5 Q 226.9 23.2 231.4 23.2 Q 241.2 23.2 245.9 29.85 A 23.778 23.778 0 0 1 249.35 37.336 Q 250.6 41.877 250.6 47.6 Q 250.6 55.261 247.961 60.82 A 22.813 22.813 0 0 1 247.65 61.45 A 24.837 24.837 0 0 1 244.055 66.743 A 20.566 20.566 0 0 1 239.9 70.3 Q 235.1 73.4 229.4 73.4 A 16.023 16.023 0 0 1 225.547 72.907 A 22.148 22.148 0 0 1 222.15 71.75 A 33.795 33.795 0 0 1 214.909 67.484 A 37.3 37.3 0 0 1 214.8 67.4 Z M 189.6 29.2 L 189.4 20.2 L 189.4 0 L 192.4 0 L 192.4 72.2 L 189.8 72.2 L 189.4 65.8 L 189.2 65.8 Q 186.2 68.8 182.2 71.1 A 17.409 17.409 0 0 1 174.434 73.364 A 20.964 20.964 0 0 1 173.2 73.4 A 20.274 20.274 0 0 1 166.364 72.294 A 17.319 17.319 0 0 1 158.8 66.95 A 21.005 21.005 0 0 1 154.969 59.803 Q 153.988 56.753 153.621 53.061 A 47.065 47.065 0 0 1 153.4 48.4 A 33.835 33.835 0 0 1 154.006 41.843 A 25.089 25.089 0 0 1 156.35 35.05 A 24.237 24.237 0 0 1 160.27 29.501 A 20.883 20.883 0 0 1 164.15 26.3 Q 169 23.2 174.8 23.2 A 21.292 21.292 0 0 1 178.694 23.541 A 16.19 16.19 0 0 1 182.55 24.75 A 29.966 29.966 0 0 1 185.768 26.5 Q 187.634 27.659 189.6 29.2 Z M 56.8 31.8 L 55.2 29.4 A 24.452 24.452 0 0 1 56.245 28.678 Q 57.472 27.873 59.187 26.913 A 75.976 75.976 0 0 1 59.3 26.85 Q 61.9 25.4 65.3 24.3 A 22.982 22.982 0 0 1 71.155 23.239 A 26.702 26.702 0 0 1 72.6 23.2 Q 76.689 23.2 79.499 24.533 A 10.126 10.126 0 0 1 81.4 25.7 A 13.162 13.162 0 0 1 85.817 32.045 A 15.959 15.959 0 0 1 85.9 32.3 A 27.957 27.957 0 0 1 87.097 38.555 A 33.395 33.395 0 0 1 87.2 41.2 L 87.2 72.2 L 84.6 72.2 L 84.2 65.8 L 84 65.8 Q 80.3 68.8 75.85 71.1 Q 71.4 73.4 66.6 73.4 A 17.785 17.785 0 0 1 61.565 72.703 A 16.165 16.165 0 0 1 59.75 72.05 Q 56.6 70.7 54.7 67.85 Q 52.8 65 52.8 60.5 A 13.171 13.171 0 0 1 54.36 54.04 Q 55.773 51.475 58.464 49.557 A 19.115 19.115 0 0 1 60.4 48.35 A 33.875 33.875 0 0 1 65.83 46.039 Q 71.617 44.095 80.163 42.904 A 146.343 146.343 0 0 1 84.2 42.4 A 31.987 31.987 0 0 0 84.211 41.58 A 31.423 31.423 0 0 0 83.45 34.7 Q 82.6 30.9 80 28.45 Q 77.4 26 72.4 26 Q 67.3 26 63.2 28 A 57.009 57.009 0 0 0 60.813 29.23 Q 58.381 30.563 56.8 31.8 Z M 282.4 73.4 Q 276.7 73.4 271.85 70.45 A 20.32 20.32 0 0 1 265.307 63.986 A 25.272 25.272 0 0 1 264.1 61.9 Q 261.327 56.546 261.206 49.09 A 42.225 42.225 0 0 1 261.2 48.4 A 36.831 36.831 0 0 1 261.716 42.068 Q 262.423 38.016 264.1 34.75 Q 267 29.1 271.85 26.15 Q 276.7 23.2 282.4 23.2 Q 288.1 23.2 292.9 26.15 Q 297.7 29.1 300.65 34.75 Q 303.6 40.4 303.6 48.4 A 35.396 35.396 0 0 1 303.075 54.656 Q 302.355 58.663 300.65 61.9 A 23.677 23.677 0 0 1 296.994 67.101 A 19.836 19.836 0 0 1 292.9 70.45 Q 288.1 73.4 282.4 73.4 Z M 214.6 34.4 L 214.6 64 Q 218.8 67.6 222.8 69.1 A 30.344 30.344 0 0 0 225.38 69.946 Q 226.64 70.294 227.752 70.456 A 12.791 12.791 0 0 0 229.6 70.6 Q 234.8 70.6 238.8 67.65 A 18.67 18.67 0 0 0 243.672 62.247 A 23.816 23.816 0 0 0 245.1 59.5 A 26.57 26.57 0 0 0 247.077 52.414 A 34.584 34.584 0 0 0 247.4 47.6 A 40.038 40.038 0 0 0 246.962 41.543 A 31.022 31.022 0 0 0 245.8 36.6 A 17.955 17.955 0 0 0 243.723 32.228 A 14.75 14.75 0 0 0 240.65 28.85 Q 237.396 26.238 232.169 26.02 A 23.245 23.245 0 0 0 231.2 26 Q 227.5 26 223.3 28.15 A 33.211 33.211 0 0 0 219.297 30.594 Q 217.423 31.917 215.494 33.603 A 57.586 57.586 0 0 0 214.6 34.4 Z M 189.4 62.2 L 189.4 32.6 A 39.093 39.093 0 0 0 186.47 30.195 Q 184.088 28.438 181.9 27.5 Q 178.4 26 174.6 26 Q 169.5 26 165.45 29 A 20.094 20.094 0 0 0 160.172 34.897 A 24.844 24.844 0 0 0 159 37.1 Q 156.6 42.2 156.6 48.4 Q 156.6 56.417 159.453 61.975 A 20.449 20.449 0 0 0 160.95 64.45 Q 165.3 70.6 173.4 70.6 A 16.142 16.142 0 0 0 181.011 68.666 A 19.107 19.107 0 0 0 181.5 68.4 A 31.217 31.217 0 0 0 185.394 65.774 Q 187.136 64.41 188.896 62.697 A 52.059 52.059 0 0 0 189.4 62.2 Z M 282.4 70.6 Q 287.5 70.6 291.6 67.8 A 18.279 18.279 0 0 0 297.023 61.94 A 22.687 22.687 0 0 0 298.05 60 Q 300.4 55 300.4 48.4 Q 300.4 41.8 298.05 36.75 A 21.004 21.004 0 0 0 294.956 31.885 A 17.842 17.842 0 0 0 291.6 28.85 Q 287.5 26 282.4 26 Q 277.3 26 273.25 28.85 Q 269.2 31.7 266.8 36.75 Q 264.4 41.8 264.4 48.4 Q 264.4 55 266.8 60 A 21.458 21.458 0 0 0 269.816 64.692 A 17.905 17.905 0 0 0 273.25 67.8 Q 277.3 70.6 282.4 70.6 Z M 84.2 62.4 L 84.2 45 Q 74.179 46.145 68.121 48.065 A 40.114 40.114 0 0 0 67.55 48.25 Q 63.659 49.547 61.149 51.224 A 12.95 12.95 0 0 0 58.7 53.3 Q 56 56.3 56 60.4 Q 56 65.9 59.25 68.25 A 12.416 12.416 0 0 0 66.201 70.588 A 15.344 15.344 0 0 0 66.8 70.6 Q 71.2 70.6 75.3 68.5 A 37.885 37.885 0 0 0 78.884 66.39 Q 80.631 65.237 82.488 63.783 A 71.485 71.485 0 0 0 84.2 62.4 Z" vector-effect="non-scaling-stroke"/></g></svg>